<svg width="24" height="24" viewBox="0 0 24 24" fill="none" xmlns="http://www.w3.org/2000/svg">
<path fill-rule="evenodd" clip-rule="evenodd" d="M15.0166 14H14.2512L13.98 13.73C14.9294 12.59 15.501 11.11 15.501 9.5C15.501 5.91 12.6818 3 9.20375 3C5.72573 3 2.90649 5.91 2.90649 9.5C2.90649 13.09 5.72573 16 9.20375 16C10.7635 16 12.1974 15.41 13.3018 14.43L13.5634 14.71V15.5L18.4074 20.49L19.851 19L15.0166 14ZM9.20375 14C6.79142 14 4.84411 11.99 4.84411 9.5C4.84411 7.01 6.79142 5 9.20375 5C11.6161 5 13.5634 7.01 13.5634 9.5C13.5634 11.99 11.6161 14 9.20375 14Z" fill="white" fill-opacity="0.74"/>
</svg>
